<?xml version="1.0" encoding="UTF-8"?>
<svg xmlns="http://www.w3.org/2000/svg" viewBox="0 0 252.99 61.48">
  <defs>
    <style>
      .cls-1, .cls-2, .cls-3, .cls-4 {
        fill: #fff;
      }

      .cls-2 {
        mix-blend-mode: multiply;
      }

      .cls-5 {
        isolation: isolate;
      }

      .cls-3 {
        opacity: .85;
      }

      .cls-4 {
        opacity: .7;
      }
    </style>
  </defs>
  <g class="cls-5">
    <g id="_图层_2" data-name="图层 2">
      <g id="_图层_1-2" data-name="图层 1">
        <g>
          <g>
            <path class="cls-4" d="M44.06,13.97V49.07c0,3.11-2.06,5.73-4.88,6.59,0,0-18.54,5.64-18.54,5.64-1.65,.5-3.44-.04-4.53-1.37-.64-.78-.97-1.74-.97-2.7V22.12c0-3.11,2.05-5.73,4.88-6.59,0,0,18.54-5.64,18.54-5.64,1.65-.5,3.44,.04,4.53,1.37,.64,.78,.97,1.74,.97,2.71Z"/>
            <path class="cls-3" d="M28.92,4.26V39.36c0,3.11-2.06,5.73-4.88,6.59,0,0-18.54,5.64-18.54,5.64-1.65,.5-3.44-.04-4.53-1.37C.33,49.44,0,48.48,0,47.51V12.41c0-3.11,2.05-5.73,4.88-6.59,0,0,18.54-5.64,18.54-5.64,1.65-.5,3.44,.04,4.53,1.37,.64,.78,.97,1.74,.97,2.71Z"/>
            <path class="cls-2" d="M28.92,39.36V12.82c-4.51,1.37-8.9,2.71-8.9,2.71-2.82,.86-4.88,3.49-4.88,6.59v26.54c4.51-1.37,8.9-2.71,8.9-2.71,2.82-.86,4.88-3.49,4.88-6.59Z"/>
          </g>
          <g>
            <path class="cls-1" d="M131.31,18.07h0c-.62-1.39-2-2.21-3.54-2.11-1.31,.09-2.49,.95-3.07,2.25l-11.82,26.37c-.1,.23-.09,.47,.03,.65,.12,.19,.33,.29,.58,.29h3.22c.36,0,.74-.25,.88-.57l2.61-5.83h15.65l2.61,5.83c.15,.33,.53,.57,.88,.57h3.22c.25,0,.46-.11,.58-.29,.12-.19,.13-.42,.03-.65l-11.88-26.51Zm2.68,16.88h-11.91l5.96-13.29,5.96,13.29Z"/>
            <path class="cls-1" d="M191.8,28.54h-13.01c-.67,0-1.22-.55-1.22-1.22v-5.61c0-.67,.55-1.22,1.22-1.22h15.18c.39,0,.79-.28,.92-.66l.99-2.91c.07-.22,.05-.44-.08-.61-.12-.17-.33-.27-.56-.27h-17.88c-2.34,0-4.25,1.9-4.25,4.24v8.2c0,2.5,2.03,4.53,4.53,4.53h12.73c.67,0,1.22,.55,1.22,1.22v5.61c0,.67-.55,1.22-1.22,1.22h-15.21c-.39,0-.79,.28-.92,.66l-.99,2.91c-.08,.22-.05,.44,.08,.62,.12,.17,.33,.27,.56,.27h17.91c2.34,0,4.24-1.9,4.24-4.24v-8.48c0-2.34-1.9-4.25-4.24-4.25Z"/>
            <path class="cls-1" d="M108.22,16.03h-18.05c-2.34,0-4.24,1.9-4.24,4.24v21c0,2.34,1.9,4.24,4.24,4.24h18.05c.4,0,.73-.33,.73-.73v-2.99c0-.4-.33-.73-.73-.73h-16.61c-.67,0-1.22-.55-1.22-1.22v-6.84h17.12c.4,0,.73-.33,.73-.73v-2.99c0-.4-.33-.73-.73-.73h-17.12v-6.84c0-.67,.55-1.22,1.22-1.22h16.61c.4,0,.73-.33,.73-.73v-2.99c0-.4-.33-.73-.73-.73Z"/>
            <path class="cls-1" d="M223.78,16.03h-18.05c-2.34,0-4.25,1.9-4.25,4.24v21c0,2.34,1.9,4.24,4.25,4.24h18.05c.4,0,.73-.33,.73-.73v-2.99c0-.4-.33-.73-.73-.73h-16.61c-.67,0-1.22-.55-1.22-1.22v-6.84h17.12c.4,0,.73-.33,.73-.73v-2.99c0-.4-.33-.73-.73-.73h-17.12v-6.84c0-.67,.55-1.22,1.22-1.22h16.61c.4,0,.73-.33,.73-.73v-2.99c0-.4-.33-.73-.73-.73Z"/>
            <path class="cls-1" d="M235.64,20.48h16.61c.4,0,.73-.33,.73-.73v-2.99c0-.4-.33-.73-.73-.73h-18.05c-2.34,0-4.25,1.9-4.25,4.24v21c0,2.34,1.9,4.24,4.25,4.24h18.05c.4,0,.73-.33,.73-.73v-2.99c0-.4-.33-.73-.73-.73h-16.61c-.67,0-1.22-.55-1.22-1.22v-6.84h17.12c.4,0,.73-.33,.73-.73v-2.99c0-.4-.33-.73-.73-.73h-17.12v-6.84c0-.67,.55-1.22,1.22-1.22Z"/>
            <path class="cls-1" d="M168.09,41.06h-15.3c-.67,0-1.22-.55-1.22-1.22V16.64c0-.23-.1-.43-.27-.55-.17-.12-.39-.16-.61-.09l-2.91,.92c-.39,.12-.68,.52-.68,.92v23.43c0,2.34,1.9,4.24,4.25,4.24h15.47c.39,0,.79-.28,.92-.66l.99-2.91c.08-.22,.05-.44-.08-.62-.12-.17-.33-.27-.56-.27Z"/>
            <path class="cls-1" d="M71.14,33h5.08c2.34,0,4.24-1.9,4.24-4.25v-8.48c0-2.34-1.9-4.24-4.24-4.24h-18.07c-1.03,0-1.86,.84-1.86,1.86v26.9c0,.4,.33,.73,.73,.73h2.99c.4,0,.73-.33,.73-.73v-11.79h4.47l10.7,12.19c.17,.19,.47,.33,.73,.33h4.01c.46,0,.63-.26,.68-.36,.05-.11,.13-.4-.17-.75l-10.02-11.41Zm4.87-5.68c0,.67-.55,1.22-1.22,1.22h-14.04v-8.06h14.04c.67,0,1.22,.55,1.22,1.22v5.61Z"/>
          </g>
        </g>
      </g>
    </g>
  </g>
</svg>